<svg width="1024" height="1024" viewBox="0 0 120 120" xmlns="http://www.w3.org/2000/svg">
<defs><linearGradient id="grw" x1="0.12" y1="0" x2="0.5" y2="1"><stop offset="0" stop-color="#37D86C"></stop><stop offset="0.55" stop-color="#1FC85C"></stop><stop offset="1" stop-color="#12B34D"></stop></linearGradient></defs>
<path d="M120.00 60.00L119.94 76.37L119.76 82.75L119.45 87.55L119.02 91.52L118.46 94.95L117.78 97.98L116.97 100.69L116.03 103.13L114.95 105.35L113.74 107.37L112.38 109.21L110.87 110.87L109.21 112.38L107.37 113.74L105.35 114.95L103.13 116.03L100.69 116.97L97.98 117.78L94.95 118.46L91.52 119.02L87.55 119.45L82.75 119.76L76.37 119.94L60.00 120.00L43.63 119.94L37.25 119.76L32.45 119.45L28.48 119.02L25.05 118.46L22.02 117.78L19.31 116.97L16.87 116.03L14.65 114.95L12.63 113.74L10.79 112.38L9.13 110.87L7.62 109.21L6.26 107.37L5.05 105.35L3.97 103.13L3.03 100.69L2.22 97.98L1.54 94.95L0.98 91.52L0.55 87.55L0.24 82.75L0.06 76.37L0.00 60.00L0.06 43.63L0.24 37.25L0.55 32.45L0.98 28.48L1.54 25.05L2.22 22.02L3.03 19.31L3.97 16.87L5.05 14.65L6.26 12.63L7.62 10.79L9.13 9.13L10.79 7.62L12.63 6.26L14.65 5.05L16.87 3.97L19.31 3.03L22.02 2.22L25.05 1.54L28.48 0.98L32.45 0.55L37.25 0.24L43.63 0.06L60.00 0.00L76.37 0.06L82.75 0.24L87.55 0.55L91.52 0.98L94.95 1.54L97.98 2.22L100.69 3.03L103.13 3.97L105.35 5.05L107.37 6.26L109.21 7.62L110.87 9.13L112.38 10.79L113.74 12.63L114.95 14.65L116.03 16.87L116.97 19.31L117.78 22.02L118.46 25.05L119.02 28.48L119.45 32.45L119.76 37.25L119.94 43.63L120.00 60.00Z" fill="#ffffff"></path><path d="M120.00 60.00L119.94 76.37L119.76 82.75L119.45 87.55L119.02 91.52L118.46 94.95L117.78 97.98L116.97 100.69L116.03 103.13L114.95 105.35L113.74 107.37L112.38 109.21L110.87 110.87L109.21 112.38L107.37 113.74L105.35 114.95L103.13 116.03L100.69 116.97L97.98 117.78L94.95 118.46L91.52 119.02L87.55 119.45L82.75 119.76L76.37 119.94L60.00 120.00L43.63 119.94L37.25 119.76L32.45 119.45L28.48 119.02L25.05 118.46L22.02 117.78L19.31 116.97L16.87 116.03L14.65 114.95L12.63 113.74L10.79 112.38L9.13 110.87L7.62 109.21L6.26 107.37L5.05 105.35L3.97 103.13L3.03 100.69L2.22 97.98L1.54 94.95L0.98 91.52L0.55 87.55L0.24 82.75L0.06 76.37L0.00 60.00L0.06 43.63L0.24 37.25L0.55 32.45L0.98 28.48L1.54 25.05L2.22 22.02L3.03 19.31L3.97 16.87L5.05 14.65L6.26 12.63L7.62 10.79L9.13 9.13L10.79 7.62L12.63 6.26L14.65 5.05L16.87 3.97L19.31 3.03L22.02 2.22L25.05 1.54L28.48 0.98L32.45 0.55L37.25 0.24L43.63 0.06L60.00 0.00L76.37 0.06L82.75 0.24L87.55 0.55L91.52 0.98L94.95 1.54L97.98 2.22L100.69 3.03L103.13 3.97L105.35 5.05L107.37 6.26L109.21 7.62L110.87 9.13L112.38 10.79L113.74 12.63L114.95 14.65L116.03 16.87L116.97 19.31L117.78 22.02L118.46 25.05L119.02 28.48L119.45 32.45L119.76 37.25L119.94 43.63L120.00 60.00Z" fill="none" stroke="rgba(0,0,0,0.08)" stroke-width="1.1"></path><g transform="translate(60 60) scale(0.84) translate(-54 -64)"><path d="M72 30 H14 V70 a6 6 0 0 0 6 6 H68" fill="none" stroke="url(#grw)" stroke-width="17.5" stroke-linecap="round" stroke-linejoin="miter" stroke-miterlimit="8"></path><path d="M72 30 H14 V70 a6 6 0 0 0 6 6 H68" fill="none" stroke="#0d130f" stroke-width="13.5" stroke-linecap="round" stroke-linejoin="miter" stroke-miterlimit="8"></path><path d="M38 52 H94 V92 a6 6 0 0 1 -6 6 H40" fill="none" stroke="url(#grw)" stroke-width="17.5" stroke-linecap="round" stroke-linejoin="miter" stroke-miterlimit="8"></path><path d="M38 52 H94 V92 a6 6 0 0 1 -6 6 H40" fill="none" stroke="#0d130f" stroke-width="13.5" stroke-linecap="round" stroke-linejoin="miter" stroke-miterlimit="8"></path></g>
</svg>