<svg width="1024" height="1024" viewBox="0 0 120 120" xmlns="http://www.w3.org/2000/svg">
<defs>
<linearGradient id="gr" x1="0.12" y1="0" x2="0.5" y2="1"><stop offset="0" stop-color="#86FFCB"></stop><stop offset="0.45" stop-color="#2BF06A"></stop><stop offset="1" stop-color="#11D156"></stop></linearGradient>
<linearGradient id="sheen" x1="0" y1="0" x2="0" y2="1"><stop offset="0" stop-color="#ffffff" stop-opacity="0.9"></stop><stop offset="0.4" stop-color="#ffffff" stop-opacity="0.05"></stop><stop offset="1" stop-color="#ffffff" stop-opacity="0"></stop></linearGradient>
<linearGradient id="bgg" x1="0" y1="0" x2="1" y2="1"><stop offset="0" stop-color="#1c2722"></stop><stop offset="0.55" stop-color="#0e1411"></stop><stop offset="1" stop-color="#080b09"></stop></linearGradient>
<radialGradient id="amb" cx="0.5" cy="0.56" r="0.62"><stop offset="0" stop-color="#3dff92" stop-opacity="0.30"></stop><stop offset="0.55" stop-color="#1bd06a" stop-opacity="0.08"></stop><stop offset="1" stop-color="#1bd06a" stop-opacity="0"></stop></radialGradient>
<linearGradient id="top" x1="0" y1="0" x2="0" y2="1"><stop offset="0" stop-color="#ffffff" stop-opacity="0.10"></stop><stop offset="0.34" stop-color="#ffffff" stop-opacity="0"></stop></linearGradient>
</defs>
<g transform="translate(60 60) scale(0.84) translate(-54 -64)"><path d="M72 30 H14 V70 a6 6 0 0 0 6 6 H68" fill="none" stroke="#16DB5C" stroke-width="17.5" stroke-linecap="round" stroke-linejoin="miter" stroke-miterlimit="8"></path><path d="M72 30 H14 V70 a6 6 0 0 0 6 6 H68" fill="none" stroke="#0a0e0b" stroke-width="13.5" stroke-linecap="round" stroke-linejoin="miter" stroke-miterlimit="8"></path><path d="M38 52 H94 V92 a6 6 0 0 1 -6 6 H40" fill="none" stroke="#16DB5C" stroke-width="17.5" stroke-linecap="round" stroke-linejoin="miter" stroke-miterlimit="8"></path><path d="M38 52 H94 V92 a6 6 0 0 1 -6 6 H40" fill="none" stroke="#0a0e0b" stroke-width="13.5" stroke-linecap="round" stroke-linejoin="miter" stroke-miterlimit="8"></path></g>
</svg>